<svg class='ageRatingIcon' width="300" height="300" viewBox="0 0 300 300" fill="none" xmlns="http://www.w3.org/2000/svg">
<path fill-rule="evenodd" clip-rule="evenodd" d="M8 8H292V292H8V8ZM0 0H8H292H300V8V292V300H292H8H0V292V8V0ZM95.355 26H54.215V145H81.585V105.39H94.505C109.125 105.39 120.175 101.933 127.655 95.02C135.248 88.1067 139.045 77.9633 139.045 64.59C139.045 51.8967 135.305 42.32 127.825 35.86C120.458 29.2867 109.635 26 95.355 26ZM108.275 79.04C105.555 82.2133 101.588 83.8 96.375 83.8H81.585V47.76H95.185C100.852 47.76 105.102 49.2333 107.935 52.18C110.882 55.1267 112.355 59.49 112.355 65.27C112.355 71.2767 110.995 75.8667 108.275 79.04ZM248.814 145V79.38H196.964V98.59H221.785V122.22C216.231 125.28 210.111 126.81 203.424 126.81C185.858 126.81 177.074 113.04 177.074 85.5C177.074 72.58 179.511 62.7767 184.384 56.09C189.371 49.4033 196.624 46.06 206.145 46.06C211.811 46.06 216.854 47.25 221.275 49.63C225.694 51.8967 229.264 55.1833 231.984 59.49L247.624 46.06C244.338 39.1467 239.011 33.82 231.645 30.08C224.391 26.2267 215.778 24.3 205.804 24.3C194.471 24.3 184.554 26.7933 176.054 31.78C167.668 36.7667 161.151 43.9067 156.504 53.2C151.971 62.38 149.704 73.1467 149.704 85.5C149.704 104.993 154.011 120.067 162.624 130.72C171.351 141.373 183.648 146.7 199.514 146.7C209.374 146.7 218.044 144.037 225.524 138.71L227.734 145H248.814ZM91.1269 254.94H72.2569V275H137.197V254.94H118.497V156H100.477L69.3669 175.04V199.18L91.1269 186.43V254.94ZM173.12 271.6C180.147 274.887 188.193 276.53 197.26 276.53C205.873 276.53 213.41 275.057 219.87 272.11C226.443 269.163 231.487 264.97 235 259.53C238.627 254.09 240.44 247.8 240.44 240.66C240.44 233.747 238.683 227.91 235.17 223.15C231.657 218.39 226.217 214.537 218.85 211.59C224.63 208.643 228.993 204.903 231.94 200.37C234.887 195.837 236.36 190.68 236.36 184.9C236.36 178.893 234.773 173.623 231.6 169.09C228.427 164.443 223.95 160.873 218.17 158.38C212.39 155.773 205.703 154.47 198.11 154.47C189.497 154.47 181.507 156.17 174.14 159.57C166.773 162.857 160.937 167.39 156.63 173.17L169.21 187.96C176.237 180.027 184.623 176.06 194.37 176.06C199.243 176.06 202.927 177.08 205.42 179.12C207.913 181.047 209.16 183.937 209.16 187.79C209.16 192.323 207.517 196.063 204.23 199.01C201.057 201.843 196.977 203.26 191.99 203.26H180.6V222.3H192.16C198.847 222.3 204.003 223.717 207.63 226.55C211.257 229.383 213.07 233.407 213.07 238.62C213.07 243.493 211.483 247.46 208.31 250.52C205.25 253.467 201.17 254.94 196.07 254.94C191.763 254.94 187.23 253.863 182.47 251.71C177.71 249.443 173.687 246.553 170.4 243.04L157.14 257.66C160.767 263.667 166.093 268.313 173.12 271.6Z" fill="black"/>
</svg>
