<svg class='ageRatingIcon' width="332" height="230" viewBox="0 0 332 230" fill="none" xmlns="http://www.w3.org/2000/svg">
<path fill-rule="evenodd" clip-rule="evenodd" d="M8 8H324V222H8V8ZM0 0H8H324H332V8V222V230H324H8H0V222V8V0ZM92.0685 33H36.4085V194H73.4385V140.41H90.9185C110.698 140.41 125.648 135.733 135.768 126.38C146.042 117.027 151.178 103.303 151.178 85.21C151.178 68.0367 146.118 55.08 135.998 46.34C126.032 37.4467 111.388 33 92.0685 33ZM109.548 104.76C105.868 109.053 100.502 111.2 93.4485 111.2H73.4385V62.44H91.8385C99.5051 62.44 105.255 64.4333 109.088 68.42C113.075 72.4067 115.068 78.31 115.068 86.13C115.068 94.2567 113.228 100.467 109.548 104.76ZM299.69 194V105.22H229.54V131.21H263.12V163.18C255.607 167.32 247.327 169.39 238.28 169.39C214.514 169.39 202.63 150.76 202.63 113.5C202.63 96.02 205.927 82.7567 212.52 73.71C219.267 64.6633 229.08 60.14 241.96 60.14C249.627 60.14 256.45 61.75 262.43 64.97C268.41 68.0367 273.24 72.4833 276.92 78.31L298.08 60.14C293.634 50.7867 286.427 43.58 276.46 38.52C266.647 33.3067 254.994 30.7 241.5 30.7C226.167 30.7 212.75 34.0733 201.25 40.82C189.904 47.5667 181.087 57.2267 174.8 69.8C168.667 82.22 165.6 96.7867 165.6 113.5C165.6 139.873 171.427 160.267 183.08 174.68C194.887 189.093 211.524 196.3 232.99 196.3C246.33 196.3 258.06 192.697 268.18 185.49L271.17 194H299.69Z" fill="black"/>
</svg>
