<svg class='ageRatingIcon' width="300" height="300" viewBox="0 0 300 300" fill="none" xmlns="http://www.w3.org/2000/svg">
<path fill-rule="evenodd" clip-rule="evenodd" d="M8 8H292V292H8V8ZM0 0H8H292H300V8V292V300H292H8H0V292V8V0ZM246.359 270V138.76H142.659V177.18H192.299V224.44C181.193 230.56 168.953 233.62 155.579 233.62C120.446 233.62 102.879 206.08 102.879 151C102.879 125.16 107.753 105.553 117.499 92.18C127.473 78.8067 141.979 72.12 161.019 72.12C172.353 72.12 182.439 74.5 191.279 79.26C200.119 83.7933 207.259 90.3667 212.699 98.98L243.979 72.12C237.406 58.2933 226.753 47.64 212.019 40.16C197.513 32.4533 180.286 28.6 160.339 28.6C137.673 28.6 117.839 33.5867 100.839 43.56C84.0661 53.5333 71.0328 67.8133 61.7395 86.4C52.6728 104.76 48.1395 126.293 48.1395 151C48.1395 189.987 56.7528 220.133 73.9795 241.44C91.4328 262.747 116.026 273.4 147.759 273.4C167.479 273.4 184.819 268.073 199.779 257.42L204.199 270H246.359Z" fill="black"/>
</svg>
