<svg class='ageRatingIcon' width="300" height="300" viewBox="0 0 300 300" fill="none" xmlns="http://www.w3.org/2000/svg">
<path fill-rule="evenodd" clip-rule="evenodd" d="M8 8H292V292H8V8ZM0 0H8H292H300V8V292V300H292H8H0V292V8V0ZM145.328 145V26H118.128V97.57L73.4183 26H47.4083V145H74.6083V72.07L120.508 145H145.328ZM187.846 139.22C196.346 144.207 206.262 146.7 217.596 146.7C227.569 146.7 236.182 144.83 243.436 141.09C250.689 137.237 256.016 131.853 259.416 124.94L243.776 111.51C238.109 120.463 229.326 124.94 217.426 124.94C208.019 124.94 200.879 121.597 196.006 114.91C191.132 108.223 188.696 98.42 188.696 85.5C188.696 72.4667 191.132 62.6633 196.006 56.09C200.992 49.4033 208.302 46.06 217.936 46.06C229.269 46.06 237.882 50.5367 243.776 59.49L259.416 46.06C256.016 39.1467 250.689 33.82 243.436 30.08C236.182 26.2267 227.569 24.3 217.596 24.3C206.262 24.3 196.346 26.7933 187.846 31.78C179.346 36.7667 172.772 43.9067 168.126 53.2C163.592 62.38 161.326 73.1467 161.326 85.5C161.326 97.8533 163.592 108.677 168.126 117.97C172.772 127.15 179.346 134.233 187.846 139.22ZM91.1269 254.94H72.2569V275H137.197V254.94H118.497V156H100.477L69.3669 175.04V199.18L91.1269 186.43V254.94ZM185.53 220.6C181.11 236.24 178.617 254.373 178.05 275H205.42C205.42 254.827 208.367 235.73 214.26 217.71C220.267 199.577 228.823 184.673 239.93 173V156H157.14V177.59H206.61C196.977 190.623 189.95 204.96 185.53 220.6Z" fill="black"/>
</svg>
