<svg class='ageRatingIcon' width="332" height="230" viewBox="0 0 332 230" fill="none" xmlns="http://www.w3.org/2000/svg">
<path fill-rule="evenodd" clip-rule="evenodd" d="M8 8H324V222H8V8ZM0 0H8H324H332V8V222V230H324H8H0V222V8V0ZM163.161 194V33H126.361V129.83L65.8709 33H30.6809V194H67.4809V95.33L129.581 194H163.161ZM251.734 33H192.624V194H229.654V135.35H238.164C245.064 135.35 249.818 136.04 252.424 137.42C255.184 138.8 257.408 141.637 259.094 145.93L277.034 194H316.134L292.674 134.43C291.754 132.283 290.528 130.29 288.994 128.45C287.461 126.61 285.314 124.693 282.554 122.7V122.24C290.528 118.56 296.584 112.963 300.724 105.45C305.018 97.9367 307.164 88.9667 307.164 78.54C307.164 48.18 288.688 33 251.734 33ZM264.844 100.39C260.858 104.223 255.108 106.14 247.594 106.14H229.654V62.44H247.134C263.081 62.44 271.054 69.4167 271.054 83.37C271.054 90.73 268.984 96.4033 264.844 100.39Z" fill="black"/>
</svg>
