<svg width="217" height="227" viewBox="0 0 217 227" fill="none" xmlns="http://www.w3.org/2000/svg" class="certification">
    <rect x="1" y="1" width="215" height="225" stroke="#FF0000" stroke-width="2"/>
    <path d="M151.454 184.208L148.485 187.919C139.95 197.877 127.457 202.855 111.005 202.855C96.4085 202.855 84.9355 198.031 76.5859 188.383C68.2982 178.673 64.0615 164.973 63.876 147.284V120.751C63.876 101.825 67.6488 87.6618 75.1943 78.2607C82.8018 68.7979 94.151 64.0664 109.242 64.0664C122.107 64.0664 132.157 67.6536 139.394 74.8281C146.692 82.0026 150.712 92.2386 151.454 105.536H134.477C133.796 97.1247 131.446 90.5687 127.426 85.8682C123.467 81.1058 117.437 78.7246 109.335 78.7246C99.6247 78.7246 92.512 81.9098 87.9971 88.2803C83.4821 94.5889 81.1318 104.701 80.9463 118.617V146.171C80.9463 159.778 83.5439 170.23 88.7393 177.528C93.9346 184.765 101.387 188.383 111.098 188.383C120.251 188.383 127.209 186.156 131.972 181.703L134.477 179.384V148.212H109.799V133.739H151.454V184.208Z" fill="#FF0000"/>
    <path fill-rule="evenodd" clip-rule="evenodd" d="M217 0H0V46H217V0ZM69.9105 17.6719C70.8196 17.3096 71.5272 16.7661 72.033 16.0415V10.5659H66.619V12.1655H70.0745V15.5186C69.7122 15.9082 69.2542 16.1851 68.7005 16.3491C68.1468 16.5132 67.5008 16.5952 66.7625 16.5952C65.4568 16.5952 64.4212 16.103 63.6556 15.1187C62.89 14.1274 62.5071 12.7944 62.5071 11.1196V9.89941C62.514 8.14258 62.8558 6.80273 63.5325 5.87988C64.2161 4.9502 65.2176 4.48535 66.5369 4.48535C68.5193 4.48535 69.6951 5.47314 70.0643 7.44873H72.033C71.8211 5.98584 71.2401 4.85791 70.2899 4.06494C69.3397 3.26514 68.0853 2.86523 66.5267 2.86523C64.6263 2.86523 63.1497 3.48389 62.097 4.72119C61.0511 5.9585 60.5281 7.70166 60.5281 9.95068V11.2529C60.5418 12.6406 60.805 13.8608 61.3177 14.9136C61.8372 15.9663 62.5687 16.7798 63.512 17.354C64.4554 17.9214 65.5355 18.2051 66.7523 18.2051C67.9554 18.2051 69.0081 18.0273 69.9105 17.6719ZM78.3433 11.0991H84.8135V9.48926H78.3433V4.69043H85.7568V3.07031H76.3745V18H85.8594V16.3901H78.3433V11.0991ZM98.8552 18H100.834V3.07031H98.8757V14.6265L91.3391 3.07031H89.36V18H91.3391V6.49512L98.8552 18ZM107.35 11.0991H113.82V9.48926H107.35V4.69043H114.763V3.07031H105.381V18H114.866V16.3901H107.35V11.0991ZM120.335 11.9604H123.842L127.082 18H129.194V17.877L125.688 11.54C126.583 11.1982 127.28 10.6821 127.779 9.9917C128.285 9.30127 128.538 8.49121 128.538 7.56152C128.538 6.09863 128.084 4.98438 127.174 4.21875C126.272 3.45312 124.98 3.07031 123.298 3.07031H118.356V18H120.335V11.9604ZM123.36 10.3506H120.335V4.69043H123.35C124.389 4.69727 125.182 4.94678 125.729 5.43896C126.282 5.93115 126.559 6.63867 126.559 7.56152C126.559 8.40918 126.269 9.08594 125.688 9.5918C125.113 10.0977 124.337 10.3506 123.36 10.3506ZM132.941 18L134.346 14.1035H140.601L142.026 18H144.046L138.335 3.07031H136.612L130.911 18H132.941ZM140.016 12.4834H134.941L137.473 5.50049L140.016 12.4834ZM156.16 16.3901H149.085V3.07031H147.106V18H156.16V16.3901ZM50.8054 43L52.2101 39.1035H58.465L59.8903 43H61.9103L56.1989 28.0703H54.4763L48.7751 43H50.8054ZM57.8806 37.4834H52.8049L55.3376 30.5005L57.8806 37.4834ZM75.2958 38.2217V28.0703H73.3168V38.1909C73.3168 39.271 73.0194 40.1084 72.4247 40.7031C71.8368 41.2979 70.9857 41.5952 69.8715 41.5952C68.7709 41.5952 67.9232 41.2979 67.3285 40.7031C66.7338 40.1016 66.4364 39.2607 66.4364 38.1807V28.0703H64.4882V38.2422C64.5019 39.7871 64.994 41.0005 65.9648 41.8823C66.9355 42.7642 68.2377 43.2051 69.8715 43.2051L70.3944 43.1846C71.8983 43.0752 73.0878 42.5728 73.9628 41.6772C74.8446 40.7817 75.289 39.6299 75.2958 38.2217ZM79.4527 28.0703V43H83.5851C84.9249 42.9863 86.0973 42.6958 87.1021 42.1284C88.1139 41.561 88.8897 40.7476 89.4298 39.688C89.9767 38.6284 90.2501 37.3945 90.2501 35.9863V35.0327C90.2433 33.6587 89.9664 32.4419 89.4195 31.3823C88.8795 30.3228 88.1104 29.5059 87.1124 28.9316C86.1143 28.3574 84.9659 28.0703 83.6671 28.0703H79.4527ZM81.4215 41.3901V29.6904H83.7184C85.1812 29.7041 86.3092 30.1826 87.1021 31.126C87.9019 32.0625 88.3018 33.3784 88.3018 35.0737V35.9453C88.3018 37.6885 87.878 39.0317 87.0304 39.9751C86.1895 40.9185 85.0103 41.3901 83.4928 41.3901H81.4215ZM94.4276 43H96.3963V28.0703H94.4276V43ZM103.024 36.0991H109.495V34.4893H103.024V29.6904H110.438V28.0703H101.056V43H110.541V41.3901H103.024V36.0991ZM123.536 43H125.515V28.0703H123.557V39.6265L116.02 28.0703H114.041V43H116.02V31.4951L123.536 43ZM139.29 41.9233C140.275 41.062 140.859 39.8418 141.044 38.2627H139.065C138.873 39.4932 138.484 40.3579 137.896 40.8569C137.315 41.3491 136.477 41.5952 135.384 41.5952C134.167 41.5952 133.22 41.1167 132.543 40.1597C131.867 39.2026 131.528 37.9141 131.528 36.2939V34.8481C131.528 33.1323 131.884 31.8096 132.595 30.8799C133.312 29.9502 134.3 29.4854 135.558 29.4854C136.583 29.4854 137.38 29.752 137.947 30.2852C138.521 30.8184 138.894 31.6797 139.065 32.8691H141.044C140.887 31.3037 140.329 30.0801 139.372 29.1982C138.415 28.3096 137.144 27.8652 135.558 27.8652C134.362 27.8652 133.309 28.1489 132.4 28.7163C131.491 29.2769 130.787 30.0835 130.288 31.1362C129.795 32.189 129.549 33.4092 129.549 34.7969V36.2324C129.549 38.3516 130.079 40.0435 131.139 41.3081C132.205 42.5728 133.62 43.2051 135.384 43.2051C137.011 43.2051 138.313 42.7778 139.29 41.9233ZM146.759 36.0991H153.23V34.4893H146.759V29.6904H154.173V28.0703H144.791V43H154.275V41.3901H146.759V36.0991ZM158.484 34.561C159.256 35.2651 160.487 35.8599 162.175 36.3452C163.522 36.7349 164.451 37.1313 164.964 37.5347C165.477 37.9312 165.733 38.4951 165.733 39.2266C165.733 39.958 165.456 40.5356 164.903 40.9595C164.349 41.3833 163.553 41.5952 162.513 41.5952C161.399 41.5952 160.507 41.3354 159.837 40.8159C159.174 40.2896 158.843 39.5752 158.843 38.6729H156.864C156.864 39.541 157.103 40.3169 157.581 41.0005C158.067 41.6841 158.754 42.2241 159.642 42.6206C160.531 43.0103 161.488 43.2051 162.513 43.2051C164.093 43.2051 165.354 42.8428 166.297 42.1182C167.241 41.3867 167.712 40.416 167.712 39.2061C167.712 38.4473 167.541 37.7876 167.2 37.2271C166.865 36.6665 166.345 36.1777 165.641 35.7607C164.944 35.3369 163.973 34.9507 162.729 34.6021C161.492 34.2534 160.613 33.8706 160.094 33.4536C159.581 33.0298 159.325 32.5137 159.325 31.9053C159.325 31.1465 159.595 30.5552 160.135 30.1313C160.681 29.7007 161.44 29.4854 162.411 29.4854C163.457 29.4854 164.267 29.7451 164.841 30.2646C165.415 30.7773 165.702 31.4849 165.702 32.3872H167.681C167.681 31.5601 167.459 30.7979 167.015 30.1006C166.577 29.4033 165.955 28.8564 165.149 28.46C164.349 28.0635 163.436 27.8652 162.411 27.8652C160.907 27.8652 159.683 28.2515 158.74 29.0239C157.804 29.7896 157.335 30.7603 157.335 31.936C157.335 32.9751 157.718 33.8501 158.484 34.561Z" fill="#FF0000"/>
</svg>
