<svg width="361" height="175" viewBox="0 0 361 175" fill="none" xmlns="http://www.w3.org/2000/svg" class="certification">
    <path fill-rule="evenodd" clip-rule="evenodd" d="M0 0H361V46V48V173V175H359H2H0V173V48V46V0ZM110.558 28.918L109.086 33H106.959L112.932 17.3594H114.736L120.72 33H118.604L117.11 28.918H110.558ZM111.181 27.2207H116.498L113.834 19.9053L111.181 27.2207ZM123.925 33V17.3594H128.34C129.701 17.3594 130.904 17.6602 131.95 18.2617C132.995 18.8633 133.801 19.7191 134.367 20.8291C134.94 21.9391 135.23 23.2139 135.237 24.6533V25.6523C135.237 27.1276 134.95 28.4203 134.377 29.5303C133.812 30.6403 132.999 31.4925 131.939 32.0869C130.886 32.6813 129.658 32.9857 128.254 33H123.925ZM125.988 19.0566V31.3135H128.158C129.747 31.3135 130.983 30.8193 131.864 29.8311C132.752 28.8428 133.196 27.4355 133.196 25.6094V24.6963C133.196 22.9203 132.777 21.5417 131.939 20.5605C131.108 19.5723 129.926 19.071 128.394 19.0566H125.988ZM150.473 17.3594V27.9941C150.466 29.4694 150.001 30.6761 149.077 31.6143C148.16 32.5524 146.914 33.0788 145.339 33.1934L144.791 33.2148C143.079 33.2148 141.715 32.7529 140.698 31.8291C139.681 30.9053 139.165 29.6341 139.151 28.0156V17.3594H141.192V27.9512C141.192 29.0827 141.504 29.9635 142.127 30.5938C142.75 31.2168 143.638 31.5283 144.791 31.5283C145.958 31.5283 146.85 31.2168 147.466 30.5938C148.089 29.9707 148.4 29.0934 148.4 27.9619V17.3594H150.473ZM156.902 31.3135H164.314V33H154.828V17.3594H156.902V31.3135ZM175.608 19.0566H170.581V33H168.529V19.0566H163.512V17.3594H175.608V19.0566ZM183.465 26.0283C181.696 25.5199 180.407 24.8968 179.598 24.1592C178.796 23.4144 178.395 22.4977 178.395 21.4092C178.395 20.1774 178.885 19.1605 179.866 18.3584C180.854 17.5492 182.136 17.1445 183.712 17.1445C184.786 17.1445 185.742 17.3522 186.58 17.7676C187.425 18.183 188.077 18.7559 188.535 19.4863C189.001 20.2168 189.233 21.0153 189.233 21.8818H187.16C187.16 20.9365 186.859 20.1953 186.258 19.6582C185.656 19.1139 184.808 18.8418 183.712 18.8418C182.695 18.8418 181.9 19.0674 181.327 19.5186C180.761 19.9626 180.479 20.582 180.479 21.377C180.479 22.0143 180.747 22.555 181.284 22.999C181.828 23.4359 182.749 23.8369 184.045 24.2021C185.348 24.5674 186.365 24.972 187.096 25.416C187.833 25.8529 188.378 26.3649 188.729 26.9521C189.087 27.5394 189.266 28.2305 189.266 29.0254C189.266 30.293 188.771 31.3099 187.783 32.0762C186.795 32.8353 185.474 33.2148 183.819 33.2148C182.745 33.2148 181.743 33.0107 180.812 32.6025C179.881 32.1872 179.161 31.6214 178.652 30.9053C178.151 30.1891 177.9 29.3763 177.9 28.4668H179.974C179.974 29.4121 180.321 30.1605 181.016 30.7119C181.717 31.2562 182.652 31.5283 183.819 31.5283C184.908 31.5283 185.742 31.3063 186.322 30.8623C186.902 30.4183 187.192 29.8131 187.192 29.0469C187.192 28.2806 186.924 27.6898 186.387 27.2744C185.85 26.8519 184.876 26.4365 183.465 26.0283ZM211.607 25.6846C211.607 27.2171 211.349 28.5563 210.834 29.7021C210.318 30.8408 209.588 31.7109 208.642 32.3125C207.697 32.9141 206.594 33.2148 205.334 33.2148C204.102 33.2148 203.01 32.9141 202.057 32.3125C201.105 31.7038 200.364 30.8408 199.834 29.7236C199.311 28.5993 199.042 27.2995 199.028 25.8242V24.6963C199.028 23.1924 199.29 21.8639 199.812 20.7109C200.335 19.558 201.073 18.6771 202.025 18.0684C202.985 17.4525 204.081 17.1445 205.312 17.1445C206.566 17.1445 207.668 17.4489 208.621 18.0576C209.581 18.6592 210.318 19.5365 210.834 20.6895C211.349 21.8353 211.607 23.1709 211.607 24.6963V25.6846ZM209.555 24.6748C209.555 22.82 209.183 21.3984 208.438 20.4102C207.693 19.4147 206.651 18.917 205.312 18.917C204.009 18.917 202.981 19.4147 202.229 20.4102C201.484 21.3984 201.101 22.7734 201.08 24.5352V25.6846C201.08 27.4821 201.456 28.8965 202.208 29.9277C202.967 30.9518 204.009 31.4639 205.334 31.4639C206.666 31.4639 207.697 30.9805 208.428 30.0137C209.158 29.0397 209.534 27.6468 209.555 25.835V24.6748ZM227.821 33H225.748L217.874 20.9473V33H215.801V17.3594H217.874L225.77 29.4658V17.3594H227.821V33ZM234.658 31.3135H242.07V33H232.585V17.3594H234.658V31.3135ZM247.714 25.2119L251.796 17.3594H254.138L248.745 27.167V33H246.683V27.167L241.29 17.3594H243.653L247.714 25.2119ZM359 48H2V173H359V48ZM83.2905 161H70.2632L28.9863 81.5615V161H15.959V57.9141H28.9863L70.4048 137.707V57.9141H83.2905V161ZM170.375 128.29C169.809 139.335 166.694 147.784 161.03 153.637C155.413 159.49 147.46 162.416 137.17 162.416C126.833 162.416 118.62 158.498 112.531 150.663C106.442 142.781 103.398 132.113 103.398 118.661V99.9697C103.398 86.5648 106.513 75.9683 112.744 68.1802C119.021 60.3921 127.565 56.498 138.374 56.498C148.333 56.498 156.027 59.4953 161.455 65.4897C166.93 71.437 169.903 79.9567 170.375 91.0488H157.277C156.711 82.6471 154.941 76.6527 151.967 73.0654C148.994 69.4782 144.462 67.6846 138.374 67.6846C131.341 67.6846 125.936 70.4458 122.16 75.9683C118.384 81.4435 116.496 89.4912 116.496 100.111V119.015C116.496 129.446 118.243 137.447 121.735 143.017C125.275 148.586 130.42 151.371 137.17 151.371C143.92 151.371 148.781 149.695 151.755 146.344C154.729 142.993 156.569 136.975 157.277 128.29H170.375ZM209.458 122.555H180.217V111.864H209.458V122.555ZM258.452 161H245.849V73.7026L224.184 83.4023V71.5078L256.469 57.4185H258.452V161ZM349.643 65.2773L314.172 161H301.074L336.474 68.6758H290.524V57.9141H349.643V65.2773Z" fill="#FF0000"/>
</svg>
