<svg width="225" height="227" viewBox="0 0 225 227" fill="none" xmlns="http://www.w3.org/2000/svg" class="certification">
    <path fill-rule="evenodd" clip-rule="evenodd" d="M0 46V2V0H2H223H225V2V46V225V227H223H2H0V225V46ZM223 46V225H2V46H223ZM106.006 201H88.9355L34.8486 96.9082V201H17.7783V65.9219H34.8486L89.1211 170.478V65.9219H106.006V201ZM176.235 146.356H152.485V201H135.415V65.9219H173.267C186.502 65.9219 196.522 69.3854 203.325 76.3125C210.129 83.1777 213.53 93.2591 213.53 106.557C213.53 114.906 211.675 122.204 207.964 128.451C204.315 134.636 199.119 139.306 192.378 142.46L218.54 199.887V201H200.264L176.235 146.356ZM152.485 131.791H173.081C180.194 131.791 185.853 129.503 190.059 124.926C194.326 120.349 196.46 114.226 196.46 106.557C196.46 89.2389 188.605 80.5801 172.896 80.5801H152.485V131.791ZM45.293 33H42.4658L31.7285 16.5645V33H28.9014V11.6719H31.7285L42.4951 28.1807V11.6719H45.293V33ZM68.1943 23.0244C68.1943 25.1143 67.8428 26.9404 67.1396 28.5029C66.4365 30.0557 65.4404 31.2422 64.1514 32.0625C62.8623 32.8828 61.3584 33.293 59.6396 33.293C57.96 33.293 56.4707 32.8828 55.1719 32.0625C53.873 31.2324 52.8623 30.0557 52.1396 28.5322C51.4268 26.999 51.0605 25.2266 51.041 23.2148V21.6768C51.041 19.626 51.3975 17.8145 52.1104 16.2422C52.8232 14.6699 53.8291 13.4688 55.1279 12.6387C56.4365 11.7988 57.9307 11.3789 59.6104 11.3789C61.3193 11.3789 62.8232 11.7939 64.1221 12.624C65.4307 13.4443 66.4365 14.6406 67.1396 16.2129C67.8428 17.7754 68.1943 19.5967 68.1943 21.6768V23.0244ZM65.3965 21.6475C65.3965 19.1182 64.8887 17.1797 63.873 15.832C62.8574 14.4746 61.4365 13.7959 59.6104 13.7959C57.833 13.7959 56.4316 14.4746 55.4062 15.832C54.3906 17.1797 53.8682 19.0547 53.8389 21.457V23.0244C53.8389 25.4756 54.3516 27.4043 55.377 28.8105C56.4121 30.207 57.833 30.9053 59.6396 30.9053C61.4561 30.9053 62.8623 30.2461 63.8584 28.9277C64.8545 27.5996 65.3672 25.7002 65.3965 23.2295V21.6475ZM88.2393 13.9863H81.3838V33H78.5859V13.9863H71.7451V11.6719H88.2393V13.9863ZM109.081 24.3721H104.071V33H101.244V11.6719H108.305C110.707 11.6719 112.553 12.2188 113.842 13.3125C115.141 14.4062 115.79 15.998 115.79 18.0879C115.79 19.416 115.429 20.5732 114.706 21.5596C113.993 22.5459 112.997 23.2832 111.718 23.7715L116.728 32.8242V33H113.71L109.081 24.3721ZM104.071 22.0723H108.393C109.789 22.0723 110.897 21.7109 111.718 20.9883C112.548 20.2656 112.963 19.2988 112.963 18.0879C112.963 16.7695 112.567 15.7588 111.776 15.0557C110.995 14.3525 109.862 13.9961 108.378 13.9863H104.071V22.0723ZM124.087 27.4336L122.08 33H119.18L127.324 11.6719H129.785L137.944 33H135.059L133.022 27.4336H124.087ZM124.937 25.1191H132.188L128.555 15.1436L124.937 25.1191ZM155.147 13.9863H148.292V33H145.494V13.9863H138.653V11.6719H155.147V13.9863ZM171.867 23.1416H162.624V30.7002H173.361V33H159.812V11.6719H173.215V13.9863H162.624V20.8418H171.867V23.1416ZM178.362 33V11.6719H184.383C186.238 11.6719 187.879 12.082 189.305 12.9023C190.73 13.7227 191.829 14.8896 192.601 16.4033C193.382 17.917 193.777 19.6553 193.787 21.6182V22.9805C193.787 24.9922 193.396 26.7549 192.615 28.2686C191.844 29.7822 190.735 30.9443 189.29 31.7549C187.854 32.5654 186.18 32.9805 184.266 33H178.362ZM181.175 13.9863V30.7002H184.134C186.302 30.7002 187.986 30.0264 189.188 28.6787C190.398 27.3311 191.004 25.4121 191.004 22.9219V21.6768C191.004 19.2549 190.433 17.375 189.29 16.0371C188.157 14.6895 186.546 14.0059 184.456 13.9863H181.175Z" fill="#FF0000"/>
</svg>
