<svg width="349" height="175" viewBox="0 0 349 175" fill="none" xmlns="http://www.w3.org/2000/svg" class="certification">
    <rect x="1" y="47" width="347" height="127" stroke="#FF0000" stroke-width="2"/>
    <path d="M25.8892 120.644V161H12.9326V57.9141H45.7842C55.3659 57.9141 62.8944 60.7933 68.3696 66.5518C73.8449 72.263 76.5825 79.8859 76.5825 89.4204C76.5825 99.3325 73.9629 106.979 68.7236 112.36C63.5316 117.694 56.1919 120.455 46.7046 120.644H25.8892ZM25.8892 109.528H45.7842C51.5426 109.528 55.9559 107.805 59.0239 104.359C62.092 100.914 63.626 95.9813 63.626 89.562C63.626 83.3787 62.0448 78.4227 58.8823 74.6938C55.7199 70.965 51.3774 69.1006 45.855 69.1006H25.8892V109.528ZM157.862 148.185L155.596 151.017C149.083 158.616 139.548 162.416 126.993 162.416C115.853 162.416 107.098 158.734 100.726 151.371C94.4007 143.961 91.1675 133.506 91.0259 120.006V99.7573C91.0259 85.314 93.9051 74.505 99.6636 67.3306C105.469 60.1089 114.131 56.498 125.647 56.498C135.465 56.498 143.135 59.2357 148.658 64.7109C154.227 70.1862 157.295 77.9979 157.862 88.146H144.905C144.386 81.7267 142.592 76.7235 139.524 73.1362C136.504 69.5018 131.902 67.6846 125.718 67.6846C118.308 67.6846 112.88 70.1154 109.434 74.9771C105.988 79.7915 104.195 87.5088 104.053 98.1289V119.157C104.053 129.541 106.036 137.518 110 143.087C113.965 148.61 119.653 151.371 127.063 151.371C134.049 151.371 139.359 149.672 142.994 146.273L144.905 144.503V120.714H126.072V109.669H157.862V148.185ZM200.484 122.555H171.243V111.864H200.484V122.555ZM249.478 161H236.875V73.7026L215.21 83.4023V71.5078L247.496 57.4185H249.478V161ZM299.817 103.085H307.818C312.963 103.085 316.928 101.504 319.712 98.3413C322.497 95.1789 323.89 90.86 323.89 85.3848C323.89 73.3014 319.217 67.2598 309.871 67.2598C305.387 67.2598 301.871 68.8882 299.322 72.145C296.773 75.4019 295.499 79.6735 295.499 84.96H283.038C283.038 76.6999 285.539 69.903 290.542 64.5693C295.593 59.1885 302.036 56.498 309.871 56.498C317.99 56.498 324.432 59.0469 329.2 64.1445C333.967 69.195 336.351 76.3695 336.351 85.668C336.351 90.4352 335.1 94.8957 332.598 99.0493C330.144 103.156 326.934 106.177 322.969 108.112C332.693 111.699 337.554 119.747 337.554 132.255C337.554 141.459 334.982 148.799 329.837 154.274C324.739 159.702 318.06 162.416 309.8 162.416C301.635 162.416 295.027 159.844 289.976 154.699C284.973 149.507 282.471 142.545 282.471 133.812H295.003C295.003 139.288 296.325 143.654 298.968 146.911C301.611 150.12 305.222 151.725 309.8 151.725C314.473 151.725 318.178 150.144 320.916 146.981C323.701 143.819 325.093 139.005 325.093 132.538C325.093 120.03 319.17 113.776 307.322 113.776H299.817V103.085Z" fill="#FF0000"/>
    <path fill-rule="evenodd" clip-rule="evenodd" d="M349 0H0V46H115.974C114.895 45.7076 113.981 45.1168 113.231 44.2275C112.121 42.9027 111.566 41.1302 111.566 38.9102V37.4062C111.566 35.9525 111.824 34.6742 112.339 33.5713C112.862 32.4684 113.6 31.6234 114.552 31.0361C115.505 30.4417 116.607 30.1445 117.861 30.1445C119.522 30.1445 120.854 30.61 121.857 31.541C122.859 32.4648 123.443 33.7467 123.608 35.3867H121.535C121.356 34.1406 120.965 33.2383 120.364 32.6797C119.769 32.1211 118.935 31.8418 117.861 31.8418C116.543 31.8418 115.508 32.3288 114.756 33.3027C114.011 34.2767 113.639 35.6624 113.639 37.46V38.9746C113.639 40.6719 113.994 42.0218 114.703 43.0244C115.412 44.027 116.403 44.5283 117.678 44.5283C118.824 44.5283 119.701 44.2705 120.31 43.7549C120.926 43.2321 121.334 42.3262 121.535 41.0371H123.608C123.414 42.6914 122.802 43.9697 121.771 44.8721C121.156 45.4092 120.42 45.7852 119.56 46H126.018L131.991 30.3594H133.796L139.779 46H146.259C145.387 45.7795 144.643 45.3892 144.027 44.8291C143.01 43.9053 142.494 42.6341 142.48 41.0156V30.3594H144.521V40.9512C144.521 42.0827 144.832 42.9635 145.455 43.5938C146.078 44.2168 146.966 44.5283 148.119 44.5283C149.287 44.5283 150.178 44.2168 150.794 43.5938C151.417 42.9707 151.729 42.0934 151.729 40.9619V30.3594H153.802V40.9941C153.795 42.4694 153.329 43.6761 152.405 44.6143C151.746 45.2895 150.915 45.7514 149.914 46H161.884V32.0566H156.868V30.3594H168.963V32.0566H163.936V46H172.534V30.3594H174.597V46H183.532C182.971 45.8497 182.447 45.6205 181.959 45.3125C181.007 44.7038 180.266 43.8408 179.736 42.7236C179.213 41.5993 178.944 40.2995 178.93 38.8242V37.6963C178.93 36.1924 179.191 34.8639 179.714 33.7109C180.237 32.558 180.975 31.6771 181.927 31.0684C182.887 30.4525 183.982 30.1445 185.214 30.1445C186.468 30.1445 187.57 30.4489 188.523 31.0576C189.482 31.6592 190.22 32.5365 190.736 33.6895C191.251 34.8353 191.509 36.1709 191.509 37.6963V38.6846C191.509 40.2171 191.251 41.5563 190.736 42.7021C190.22 43.8408 189.49 44.7109 188.544 45.3125C188.06 45.6205 187.535 45.8497 186.968 46H195.703V30.3594H197.776L205.672 42.4658V30.3594H207.723V46H212.487V30.3594H222.316V32.0566H214.549V37.084H221.327V38.7705H214.549V44.3135H222.423V46H226.09V30.3594H230.505C231.866 30.3594 233.069 30.6602 234.115 31.2617C235.16 31.8633 235.966 32.7191 236.532 33.8291C237.105 34.9391 237.395 36.2139 237.402 37.6533V38.6523C237.402 40.1276 237.115 41.4203 236.543 42.5303C235.977 43.6403 235.164 44.4925 234.104 45.0869C233.051 45.6813 231.823 45.9857 230.42 46H349V0ZM205.65 46L197.776 33.9473V46H205.65ZM137.663 46L136.17 41.918H129.617L128.145 46H137.663ZM65.744 20V13.877H69.4285C71.1974 13.877 72.5545 13.4688 73.4998 12.6523C74.4523 11.8288 74.9285 10.6579 74.9285 9.13965C74.9285 7.7002 74.4415 6.54361 73.4676 5.66992C72.5008 4.79623 71.1616 4.35938 69.45 4.35938H63.6815V20H65.744ZM69.45 12.1904H65.744V6.05664H69.5682C70.5923 6.07812 71.3979 6.36816 71.9852 6.92676C72.5724 7.48535 72.866 8.23013 72.866 9.16113C72.866 10.1422 72.5724 10.8942 71.9852 11.417C71.3979 11.9326 70.5529 12.1904 69.45 12.1904ZM77.7902 20L79.2619 15.918H85.8146L87.3078 20H89.424L83.4406 4.35938H81.6359L75.6633 20H77.7902ZM85.2023 14.2207H79.8849L82.5383 6.90527L85.2023 14.2207ZM94.692 13.6729H98.3658L101.76 20H103.973V19.8711L100.299 13.2324C101.238 12.8744 101.968 12.3336 102.491 11.6104C103.021 10.8871 103.286 10.0384 103.286 9.06445C103.286 7.53189 102.809 6.36459 101.857 5.5625C100.912 4.76041 99.5582 4.35938 97.7965 4.35938H92.6187V20H94.692V13.6729ZM97.8609 11.9863H94.692V6.05664H97.8502C98.9387 6.06381 99.7695 6.3252 100.342 6.84082C100.922 7.35645 101.212 8.09766 101.212 9.06445C101.212 9.95248 100.908 10.6615 100.299 11.1914C99.6978 11.7213 98.885 11.9863 97.8609 11.9863ZM109.349 12.7705H116.127V11.084H109.349V6.05664H117.115V4.35938H107.286V20H117.223V18.3135H109.349V12.7705ZM130.837 20H132.911V4.35938H130.859V16.4658L122.963 4.35938H120.89V20H122.963V7.94727L130.837 20ZM143.131 6.05664H148.158V4.35938H136.062V6.05664H141.079V20H143.131V6.05664ZM152.148 11.1592C152.957 11.8968 154.246 12.5199 156.015 13.0283C157.426 13.4365 158.4 13.8519 158.937 14.2744C159.474 14.6898 159.742 15.2806 159.742 16.0469C159.742 16.8131 159.452 17.4183 158.872 17.8623C158.292 18.3063 157.458 18.5283 156.369 18.5283C155.202 18.5283 154.267 18.2562 153.566 17.7119C152.871 17.1605 152.524 16.4121 152.524 15.4668H150.45C150.45 16.3763 150.701 17.1891 151.202 17.9053C151.711 18.6214 152.431 19.1872 153.362 19.6025C154.292 20.0107 155.295 20.2148 156.369 20.2148C158.024 20.2148 159.345 19.8353 160.333 19.0762C161.321 18.3099 161.816 17.293 161.816 16.0254C161.816 15.2305 161.637 14.5394 161.279 13.9521C160.928 13.3649 160.383 12.8529 159.646 12.416C158.915 11.972 157.898 11.5674 156.595 11.2021C155.299 10.8369 154.378 10.4359 153.834 9.99902C153.297 9.55502 153.029 9.01431 153.029 8.37695C153.029 7.58203 153.311 6.96255 153.877 6.51855C154.45 6.06738 155.245 5.8418 156.262 5.8418C157.358 5.8418 158.206 6.11392 158.808 6.6582C159.409 7.19531 159.71 7.93652 159.71 8.88184H161.783C161.783 8.01529 161.551 7.2168 161.085 6.48633C160.627 5.75586 159.975 5.18295 159.13 4.76758C158.292 4.3522 157.336 4.14453 156.262 4.14453C154.686 4.14453 153.404 4.54916 152.416 5.3584C151.435 6.16049 150.945 7.1774 150.945 8.40918C150.945 9.49771 151.346 10.4144 152.148 11.1592ZM172.867 11.1592C173.676 11.8968 174.965 12.5199 176.734 13.0283C178.145 13.4365 179.119 13.8519 179.656 14.2744C180.193 14.6898 180.462 15.2806 180.462 16.0469C180.462 16.8131 180.172 17.4183 179.592 17.8623C179.012 18.3063 178.177 18.5283 177.089 18.5283C175.922 18.5283 174.987 18.2562 174.285 17.7119C173.59 17.1605 173.243 16.4121 173.243 15.4668H171.17C171.17 16.3763 171.421 17.1891 171.922 17.9053C172.43 18.6214 173.15 19.1872 174.081 19.6025C175.012 20.0107 176.015 20.2148 177.089 20.2148C178.743 20.2148 180.064 19.8353 181.053 19.0762C182.041 18.3099 182.535 17.293 182.535 16.0254C182.535 15.2305 182.356 14.5394 181.998 13.9521C181.647 13.3649 181.103 12.8529 180.365 12.416C179.635 11.972 178.618 11.5674 177.314 11.2021C176.018 10.8369 175.098 10.4359 174.554 9.99902C174.017 9.55502 173.748 9.01431 173.748 8.37695C173.748 7.58203 174.031 6.96255 174.597 6.51855C175.17 6.06738 175.965 5.8418 176.981 5.8418C178.077 5.8418 178.926 6.11392 179.527 6.6582C180.129 7.19531 180.43 7.93652 180.43 8.88184H182.503C182.503 8.01529 182.27 7.2168 181.805 6.48633C181.346 5.75586 180.695 5.18295 179.85 4.76758C179.012 4.3522 178.056 4.14453 176.981 4.14453C175.406 4.14453 174.124 4.54916 173.136 5.3584C172.155 6.16049 171.664 7.1774 171.664 8.40918C171.664 9.49771 172.065 10.4144 172.867 11.1592ZM192.068 6.05664H197.095V4.35938H184.999V6.05664H190.016V20H192.068V6.05664ZM202.578 13.6729H206.252L209.646 20H211.859V19.8711L208.185 13.2324C209.124 12.8744 209.854 12.3336 210.377 11.6104C210.907 10.8871 211.172 10.0384 211.172 9.06445C211.172 7.53189 210.695 6.36459 209.743 5.5625C208.798 4.76041 207.444 4.35938 205.682 4.35938H200.505V20H202.578V13.6729ZM205.747 11.9863H202.578V6.05664H205.736C206.825 6.06381 207.655 6.3252 208.228 6.84082C208.808 7.35645 209.098 8.09766 209.098 9.06445C209.098 9.95248 208.794 10.6615 208.185 11.1914C207.584 11.7213 206.771 11.9863 205.747 11.9863ZM226.43 16.7021C226.946 15.5563 227.203 14.2171 227.203 12.6846V11.6963C227.203 10.1709 226.946 8.8353 226.43 7.68945C225.914 6.53647 225.177 5.65918 224.217 5.05762C223.265 4.44888 222.162 4.14453 220.908 4.14453C219.677 4.14453 218.581 4.45248 217.621 5.06836C216.669 5.67709 215.931 6.55795 215.408 7.71094C214.886 8.86392 214.624 10.1924 214.624 11.6963V12.8242C214.639 14.2995 214.907 15.5993 215.43 16.7236C215.96 17.8408 216.701 18.7038 217.654 19.3125C218.606 19.9141 219.698 20.2148 220.93 20.2148C222.19 20.2148 223.293 19.9141 224.238 19.3125C225.184 18.7109 225.914 17.8408 226.43 16.7021ZM224.034 7.41016C224.779 8.39844 225.152 9.81998 225.152 11.6748V12.835C225.13 14.6468 224.754 16.0397 224.024 17.0137C223.293 17.9805 222.262 18.4639 220.93 18.4639C219.605 18.4639 218.563 17.9518 217.804 16.9277C217.052 15.8965 216.676 14.4821 216.676 12.6846V11.5352C216.697 9.77344 217.081 8.39844 217.825 7.41016C218.577 6.4147 219.605 5.91699 220.908 5.91699C222.248 5.91699 223.29 6.4147 224.034 7.41016ZM241.344 20H243.418V4.35938H241.366V16.4658L233.47 4.35938H231.397V20H233.47V7.94727L241.344 20ZM257.505 19.6562C258.457 19.2767 259.199 18.7074 259.729 17.9482V12.2119H254.057V13.8877H257.677V17.4004C257.297 17.8086 256.817 18.0986 256.237 18.2705C255.657 18.4424 254.98 18.5283 254.207 18.5283C252.839 18.5283 251.754 18.0127 250.952 16.9814C250.15 15.943 249.749 14.5465 249.749 12.792V11.5137C249.756 9.67319 250.114 8.26953 250.823 7.30273C251.539 6.32877 252.589 5.8418 253.971 5.8418C256.048 5.8418 257.279 6.87662 257.666 8.94629H259.729C259.507 7.41373 258.898 6.23209 257.902 5.40137C256.907 4.56348 255.593 4.14453 253.96 4.14453C251.969 4.14453 250.422 4.79263 249.319 6.08887C248.224 7.3851 247.676 9.21127 247.676 11.5674V12.9316C247.69 14.3854 247.966 15.6637 248.503 16.7666C249.047 17.8695 249.813 18.7217 250.802 19.3232C251.79 19.9176 252.922 20.2148 254.196 20.2148C255.457 20.2148 256.56 20.0287 257.505 19.6562ZM273.762 18.3135H266.35V4.35938H264.277V20H273.762V18.3135ZM283.488 4.35938L279.406 12.2119L275.346 4.35938H272.982L278.375 14.167V20H280.437V14.167L285.83 4.35938H283.488ZM135.557 40.2207H130.24L132.893 32.9053L135.557 40.2207ZM188.34 33.4102C189.085 34.3984 189.457 35.82 189.457 37.6748V38.835C189.436 40.6468 189.06 42.0397 188.329 43.0137C187.599 43.9805 186.568 44.4639 185.236 44.4639C183.911 44.4639 182.869 43.9518 182.11 42.9277C181.358 41.8965 180.982 40.4821 180.982 38.6846V37.5352C181.003 35.7734 181.386 34.3984 182.131 33.4102C182.883 32.4147 183.911 31.917 185.214 31.917C186.553 31.917 187.595 32.4147 188.34 33.4102ZM228.153 44.3135V32.0566H230.559C232.092 32.071 233.273 32.5723 234.104 33.5605C234.942 34.5417 235.361 35.9203 235.361 37.6963V38.6094C235.361 40.4355 234.917 41.8428 234.029 42.8311C233.148 43.8193 231.913 44.3135 230.323 44.3135H228.153Z" fill="#FF0000"/>
</svg>
