<svg width="236" height="229" viewBox="0 0 236 229" fill="none" xmlns="http://www.w3.org/2000/svg" class="certification">
    <rect x="1" y="47" width="234" height="181" stroke="#FF0000" stroke-width="2"/>
    <path d="M40.7197 150.119V203H23.7422V67.9219H66.7891C79.3444 67.9219 89.2093 71.6947 96.3838 79.2402C103.558 86.724 107.146 96.7126 107.146 109.206C107.146 122.194 103.713 132.214 96.8477 139.265C90.0443 146.254 80.4268 149.872 67.9951 150.119H40.7197ZM40.7197 135.554H66.7891C74.3346 135.554 80.1175 133.296 84.1377 128.781C88.1579 124.266 90.168 117.803 90.168 109.392C90.168 101.289 88.096 94.7952 83.9521 89.9092C79.8083 85.0231 74.1182 82.5801 66.8818 82.5801H40.7197V135.554ZM213.649 186.208L210.681 189.919C202.146 199.877 189.652 204.855 173.2 204.855C158.604 204.855 147.131 200.031 138.781 190.383C130.493 180.673 126.257 166.973 126.071 149.284V122.751C126.071 103.825 129.844 89.6618 137.39 80.2607C144.997 70.7979 156.346 66.0664 171.438 66.0664C184.302 66.0664 194.353 69.6536 201.589 76.8281C208.887 84.0026 212.907 94.2386 213.649 107.536H196.672C195.992 99.1247 193.641 92.5687 189.621 87.8682C185.663 83.1058 179.632 80.7246 171.53 80.7246C161.82 80.7246 154.707 83.9098 150.192 90.2803C145.677 96.5889 143.327 106.701 143.142 120.617V148.171C143.142 161.778 145.739 172.23 150.935 179.528C156.13 186.765 163.583 190.383 173.293 190.383C182.447 190.383 189.405 188.156 194.167 183.703L196.672 181.384V150.212H171.994V135.739H213.649V186.208Z" fill="#FF0000"/>
    <path fill-rule="evenodd" clip-rule="evenodd" d="M236 0H0V46H236V0ZM13.748 20V14.4336H17.0977C18.7057 14.4336 19.9395 14.0625 20.7988 13.3203C21.6647 12.5716 22.0977 11.5072 22.0977 10.127C22.0977 8.81836 21.6549 7.76694 20.7695 6.97266C19.8906 6.17838 18.6732 5.78125 17.1172 5.78125H11.873V20H13.748ZM17.1172 12.9004H13.748V7.32422H17.2246C18.1556 7.34375 18.888 7.60742 19.4219 8.11523C19.9557 8.62305 20.2227 9.30014 20.2227 10.1465C20.2227 11.0384 19.9557 11.722 19.4219 12.1973C18.888 12.666 18.1198 12.9004 17.1172 12.9004ZM24.6992 20L26.0371 16.2891H31.9941L33.3516 20H35.2754L29.8359 5.78125H28.1953L22.7656 20H24.6992ZM31.4375 14.7461H26.6035L29.0156 8.0957L31.4375 14.7461ZM40.0645 14.248H43.4043L46.4902 20H48.502V19.8828L45.1621 13.8477C46.015 13.5221 46.679 13.0306 47.1543 12.373C47.6361 11.7155 47.877 10.944 47.877 10.0586C47.877 8.66537 47.444 7.60416 46.5781 6.875C45.7188 6.14584 44.4883 5.78125 42.8867 5.78125H38.1797V20H40.0645V14.248ZM42.9453 12.7148H40.0645V7.32422H42.9355C43.9251 7.33072 44.6803 7.56836 45.2012 8.03711C45.7285 8.50586 45.9922 9.17969 45.9922 10.0586C45.9922 10.8659 45.7155 11.5104 45.1621 11.9922C44.6152 12.474 43.8763 12.7148 42.9453 12.7148ZM53.3887 13.4277H59.5508V11.8945H53.3887V7.32422H60.4492V5.78125H51.5137V20H60.5469V18.4668H53.3887V13.4277ZM72.9238 20H74.8086V5.78125H72.9434V16.7871L65.7656 5.78125H63.8809V20H65.7656V9.04297L72.9238 20ZM84.0996 7.32422H88.6699V5.78125H77.6738V7.32422H82.2344V20H84.0996V7.32422ZM91.5547 20L92.8926 16.2891H98.8496L100.207 20H102.131L96.6914 5.78125H95.0508L89.6211 20H91.5547ZM98.293 14.7461H93.459L95.8711 8.0957L98.293 14.7461ZM113.668 18.4668H106.93V5.78125H105.045V20H113.668V18.4668ZM131.244 19.6875C132.11 19.3424 132.784 18.8249 133.266 18.1348V12.9199H128.109V14.4434H131.4V17.6367C131.055 18.0078 130.619 18.2715 130.092 18.4277C129.564 18.584 128.949 18.6621 128.246 18.6621C127.003 18.6621 126.016 18.1934 125.287 17.2559C124.558 16.3119 124.193 15.0423 124.193 13.4473V12.2852C124.2 10.612 124.525 9.33594 125.17 8.45703C125.821 7.57162 126.775 7.12891 128.031 7.12891C129.919 7.12891 131.039 8.06967 131.391 9.95117H133.266C133.064 8.55795 132.51 7.48373 131.605 6.72852C130.701 5.9668 129.506 5.58594 128.021 5.58594C126.212 5.58594 124.805 6.17514 123.803 7.35352C122.807 8.53189 122.309 10.192 122.309 12.334V13.5742C122.322 14.8958 122.572 16.058 123.061 17.0605C123.555 18.0631 124.252 18.8379 125.15 19.3848C126.049 19.9251 127.077 20.1953 128.236 20.1953C129.382 20.1953 130.385 20.026 131.244 19.6875ZM147.41 15.4492V5.78125H145.525V15.4199C145.525 16.4486 145.242 17.2461 144.676 17.8125C144.116 18.3789 143.305 18.6621 142.244 18.6621C141.196 18.6621 140.389 18.3789 139.822 17.8125C139.256 17.2396 138.973 16.4388 138.973 15.4102V5.78125H137.117V15.4688C137.13 16.9401 137.599 18.0957 138.523 18.9355C139.448 19.7754 140.688 20.1953 142.244 20.1953L142.742 20.1758C144.174 20.0716 145.307 19.5931 146.141 18.7402C146.98 17.8874 147.404 16.7904 147.41 15.4492ZM151.506 20H153.381V5.78125H151.506V20ZM157.818 5.78125V20H161.754C163.03 19.987 164.146 19.7103 165.104 19.1699C166.067 18.6295 166.806 17.8548 167.32 16.8457C167.841 15.8366 168.102 14.6615 168.102 13.3203V12.4121C168.095 11.1035 167.831 9.94467 167.311 8.93555C166.796 7.92642 166.064 7.14844 165.113 6.60156C164.163 6.05469 163.069 5.78125 161.832 5.78125H157.818ZM159.693 18.4668V7.32422H161.881C163.274 7.33725 164.348 7.79297 165.104 8.69141C165.865 9.58334 166.246 10.8366 166.246 12.4512V13.2812C166.246 14.9414 165.842 16.2207 165.035 17.1191C164.234 18.0176 163.111 18.4668 161.666 18.4668H159.693ZM172.285 20L173.623 16.2891H179.58L180.938 20H182.861L177.422 5.78125H175.781L170.352 20H172.285ZM179.023 14.7461H174.189L176.602 8.0957L179.023 14.7461ZM194.818 20H196.703V5.78125H194.838V16.7871L187.66 5.78125H185.775V20H187.66V9.04297L194.818 20ZM209.822 18.9746C210.76 18.1543 211.316 16.9922 211.492 15.4883H209.607C209.425 16.6602 209.054 17.4837 208.494 17.959C207.941 18.4277 207.143 18.6621 206.102 18.6621C204.943 18.6621 204.041 18.2064 203.396 17.2949C202.752 16.3835 202.43 15.1562 202.43 13.6133V12.2363C202.43 10.6022 202.768 9.34244 203.445 8.45703C204.129 7.57162 205.07 7.12891 206.268 7.12891C207.244 7.12891 208.003 7.38281 208.543 7.89062C209.09 8.39844 209.445 9.21875 209.607 10.3516H211.492C211.342 8.86069 210.812 7.69531 209.9 6.85547C208.989 6.00912 207.778 5.58594 206.268 5.58594C205.128 5.58594 204.126 5.85611 203.26 6.39648C202.394 6.93033 201.723 7.69858 201.248 8.70117C200.779 9.70377 200.545 10.8659 200.545 12.1875V13.5547C200.545 15.5729 201.049 17.1842 202.059 18.3887C203.074 19.5931 204.422 20.1953 206.102 20.1953C207.651 20.1953 208.891 19.7884 209.822 18.9746ZM216.936 13.4277H223.098V11.8945H216.936V7.32422H223.996V5.78125H215.061V20H224.094V18.4668H216.936V13.4277ZM60.4355 34.9629C61.1712 35.6335 62.3431 36.1999 63.9512 36.6621C65.2337 37.0332 66.1191 37.4108 66.6074 37.7949C67.0957 38.1725 67.3398 38.7096 67.3398 39.4062C67.3398 40.1029 67.0762 40.653 66.5488 41.0566C66.0215 41.4603 65.263 41.6621 64.2734 41.6621C63.2122 41.6621 62.3626 41.4147 61.7246 40.9199C61.0931 40.4186 60.7773 39.7383 60.7773 38.8789H58.8926C58.8926 39.7057 59.1205 40.4447 59.5762 41.0957C60.0384 41.7467 60.6927 42.2611 61.5391 42.6387C62.3854 43.0098 63.2969 43.1953 64.2734 43.1953C65.7773 43.1953 66.9785 42.8503 67.877 42.1602C68.7754 41.4635 69.2246 40.5391 69.2246 39.3867C69.2246 38.6641 69.0619 38.0358 68.7363 37.502C68.4173 36.9681 67.9225 36.5026 67.252 36.1055C66.5879 35.7018 65.6634 35.334 64.4785 35.002C63.3001 34.6699 62.4635 34.3053 61.9688 33.9082C61.4805 33.5045 61.2363 33.013 61.2363 32.4336C61.2363 31.7109 61.4935 31.1478 62.0078 30.7441C62.5287 30.334 63.2513 30.1289 64.1758 30.1289C65.1719 30.1289 65.9434 30.3763 66.4902 30.8711C67.0371 31.3594 67.3105 32.0332 67.3105 32.8926H69.1953C69.1953 32.1048 68.9837 31.3789 68.5605 30.7148C68.1439 30.0508 67.5514 29.5299 66.7832 29.1523C66.0215 28.7747 65.1523 28.5859 64.1758 28.5859C62.7435 28.5859 61.5781 28.9538 60.6797 29.6895C59.7878 30.4186 59.3418 31.3431 59.3418 32.4629C59.3418 33.4525 59.7064 34.2858 60.4355 34.9629ZM82.6465 38.4492V28.7812H80.7617V38.4199C80.7617 39.4486 80.4785 40.2461 79.9121 40.8125C79.3522 41.3789 78.5417 41.6621 77.4805 41.6621C76.4323 41.6621 75.625 41.3789 75.0586 40.8125C74.4922 40.2396 74.209 39.4388 74.209 38.4102V28.7812H72.3535V38.4688C72.3665 39.9401 72.8353 41.0957 73.7598 41.9355C74.6842 42.7754 75.9245 43.1953 77.4805 43.1953L77.9785 43.1758C79.4108 43.0716 80.5436 42.5931 81.377 41.7402C82.2168 40.8874 82.64 39.7904 82.6465 38.4492ZM95.082 42.6875C95.9479 42.3424 96.6217 41.8249 97.1035 41.1348V35.9199H91.9473V37.4434H95.2383V40.6367C94.8932 41.0078 94.457 41.2715 93.9297 41.4277C93.4023 41.584 92.7871 41.6621 92.084 41.6621C90.8405 41.6621 89.8542 41.1934 89.125 40.2559C88.3958 39.3119 88.0312 38.0423 88.0312 36.4473V35.2852C88.0378 33.612 88.3633 32.3359 89.0078 31.457C89.6588 30.5716 90.6126 30.1289 91.8691 30.1289C93.7572 30.1289 94.877 31.0697 95.2285 32.9512H97.1035C96.9017 31.558 96.3483 30.4837 95.4434 29.7285C94.5384 28.9668 93.3438 28.5859 91.8594 28.5859C90.0495 28.5859 88.6432 29.1751 87.6406 30.3535C86.6445 31.5319 86.1465 33.192 86.1465 35.334V36.5742C86.1595 37.8958 86.4102 39.058 86.8984 40.0605C87.3932 41.0631 88.0898 41.8379 88.9883 42.3848C89.8867 42.9251 90.9154 43.1953 92.0742 43.1953C93.2201 43.1953 94.2227 43.026 95.082 42.6875ZM109.715 42.6875C110.581 42.3424 111.255 41.8249 111.736 41.1348V35.9199H106.58V37.4434H109.871V40.6367C109.526 41.0078 109.09 41.2715 108.562 41.4277C108.035 41.584 107.42 41.6621 106.717 41.6621C105.473 41.6621 104.487 41.1934 103.758 40.2559C103.029 39.3119 102.664 38.0423 102.664 36.4473V35.2852C102.671 33.612 102.996 32.3359 103.641 31.457C104.292 30.5716 105.245 30.1289 106.502 30.1289C108.39 30.1289 109.51 31.0697 109.861 32.9512H111.736C111.535 31.558 110.981 30.4837 110.076 29.7285C109.171 28.9668 107.977 28.5859 106.492 28.5859C104.682 28.5859 103.276 29.1751 102.273 30.3535C101.277 31.5319 100.779 33.192 100.779 35.334V36.5742C100.792 37.8958 101.043 39.058 101.531 40.0605C102.026 41.0631 102.723 41.8379 103.621 42.3848C104.52 42.9251 105.548 43.1953 106.707 43.1953C107.853 43.1953 108.855 43.026 109.715 42.6875ZM117.746 36.4277H123.908V34.8945H117.746V30.3242H124.807V28.7812H115.871V43H124.904V41.4668H117.746V36.4277ZM128.912 34.9629C129.648 35.6335 130.82 36.1999 132.428 36.6621C133.71 37.0332 134.596 37.4108 135.084 37.7949C135.572 38.1725 135.816 38.7096 135.816 39.4062C135.816 40.1029 135.553 40.653 135.025 41.0566C134.498 41.4603 133.74 41.6621 132.75 41.6621C131.689 41.6621 130.839 41.4147 130.201 40.9199C129.57 40.4186 129.254 39.7383 129.254 38.8789H127.369C127.369 39.7057 127.597 40.4447 128.053 41.0957C128.515 41.7467 129.169 42.2611 130.016 42.6387C130.862 43.0098 131.773 43.1953 132.75 43.1953C134.254 43.1953 135.455 42.8503 136.354 42.1602C137.252 41.4635 137.701 40.5391 137.701 39.3867C137.701 38.6641 137.538 38.0358 137.213 37.502C136.894 36.9681 136.399 36.5026 135.729 36.1055C135.064 35.7018 134.14 35.334 132.955 35.002C131.777 34.6699 130.94 34.3053 130.445 33.9082C129.957 33.5045 129.713 33.013 129.713 32.4336C129.713 31.7109 129.97 31.1478 130.484 30.7441C131.005 30.334 131.728 30.1289 132.652 30.1289C133.648 30.1289 134.42 30.3763 134.967 30.8711C135.514 31.3594 135.787 32.0332 135.787 32.8926H137.672C137.672 32.1048 137.46 31.3789 137.037 30.7148C136.62 30.0508 136.028 29.5299 135.26 29.1523C134.498 28.7747 133.629 28.5859 132.652 28.5859C131.22 28.5859 130.055 28.9538 129.156 29.6895C128.264 30.4186 127.818 31.3431 127.818 32.4629C127.818 33.4525 128.183 34.2858 128.912 34.9629ZM146.367 30.3242H150.938V28.7812H139.941V30.3242H144.502V43H146.367V30.3242ZM155.922 36.4277H162.084V34.8945H155.922V30.3242H162.982V28.7812H154.047V43H163.08V41.4668H155.922V36.4277ZM166.414 28.7812V43H170.35C171.626 42.987 172.742 42.7103 173.699 42.1699C174.663 41.6295 175.402 40.8548 175.916 39.8457C176.437 38.8366 176.697 37.6615 176.697 36.3203V35.4121C176.691 34.1035 176.427 32.9447 175.906 31.9355C175.392 30.9264 174.66 30.1484 173.709 29.6016C172.758 29.0547 171.665 28.7812 170.428 28.7812H166.414ZM168.289 41.4668V30.3242H170.477C171.87 30.3372 172.944 30.793 173.699 31.6914C174.461 32.5833 174.842 33.8366 174.842 35.4512V36.2812C174.842 37.9414 174.438 39.2207 173.631 40.1191C172.83 41.0176 171.707 41.4668 170.262 41.4668H168.289Z" fill="#FF0000"/>
</svg>
