<svg width="217" height="227" viewBox="0 0 217 227" fill="none" xmlns="http://www.w3.org/2000/svg" class="certification">
    <path fill-rule="evenodd" clip-rule="evenodd" d="M0 46V2V0H2H215H217V2V46V225V227H215H2H0V225V46ZM215 46V225H2V46H215ZM113.417 146.356H89.667V201H72.5967V65.9219H110.448C123.684 65.9219 133.703 69.3854 140.507 76.3125C147.31 83.1777 150.712 93.2591 150.712 106.557C150.712 114.906 148.856 122.204 145.146 128.451C141.496 134.636 136.301 139.306 129.56 142.46L155.722 199.887V201H137.445L113.417 146.356ZM89.667 131.791H110.263C117.375 131.791 123.035 129.503 127.24 124.926C131.508 120.349 133.642 114.226 133.642 106.557C133.642 89.2389 125.787 80.5801 110.077 80.5801H89.667V131.791ZM26.2227 24.3721H21.2129V33H18.3857V11.6719H25.4463C27.8486 11.6719 29.6943 12.2188 30.9834 13.3125C32.2822 14.4062 32.9316 15.998 32.9316 18.0879C32.9316 19.416 32.5703 20.5732 31.8477 21.5596C31.1348 22.5459 30.1387 23.2832 28.8594 23.7715L33.8691 32.8242V33H30.8516L26.2227 24.3721ZM21.2129 22.0723H25.5342C26.9307 22.0723 28.0391 21.7109 28.8594 20.9883C29.6895 20.2656 30.1045 19.2988 30.1045 18.0879C30.1045 16.7695 29.709 15.7588 28.918 15.0557C28.1367 14.3525 27.0039 13.9961 25.5195 13.9863H21.2129V22.0723ZM50.4424 23.1416H41.1992V30.7002H51.9365V33H38.3867V11.6719H51.79V13.9863H41.1992V20.8418H50.4424V23.1416ZM63.2217 23.4932C60.8096 22.7998 59.0518 21.9502 57.9482 20.9443C56.8545 19.9287 56.3076 18.6787 56.3076 17.1943C56.3076 15.5146 56.9766 14.1279 58.3145 13.0342C59.6621 11.9307 61.4102 11.3789 63.5586 11.3789C65.0234 11.3789 66.3271 11.6621 67.4697 12.2285C68.6221 12.7949 69.5107 13.5762 70.1357 14.5723C70.7705 15.5684 71.0879 16.6572 71.0879 17.8389H68.2607C68.2607 16.5498 67.8506 15.5391 67.0303 14.8066C66.21 14.0645 65.0527 13.6934 63.5586 13.6934C62.1719 13.6934 61.0879 14.001 60.3066 14.6162C59.5352 15.2217 59.1494 16.0664 59.1494 17.1504C59.1494 18.0195 59.5156 18.7568 60.248 19.3623C60.9902 19.958 62.2451 20.5049 64.0127 21.0029C65.79 21.501 67.1768 22.0527 68.1729 22.6582C69.1787 23.2539 69.9209 23.9521 70.3994 24.7529C70.8877 25.5537 71.1318 26.4961 71.1318 27.5801C71.1318 29.3086 70.458 30.6953 69.1104 31.7402C67.7627 32.7754 65.9609 33.293 63.7051 33.293C62.2402 33.293 60.873 33.0146 59.6035 32.458C58.334 31.8916 57.3525 31.1201 56.6592 30.1436C55.9756 29.167 55.6338 28.0586 55.6338 26.8184H58.4609C58.4609 28.1074 58.9346 29.1279 59.8818 29.8799C60.8389 30.6221 62.1133 30.9932 63.7051 30.9932C65.1895 30.9932 66.3271 30.6904 67.1182 30.085C67.9092 29.4795 68.3047 28.6543 68.3047 27.6094C68.3047 26.5645 67.9385 25.7588 67.2061 25.1924C66.4736 24.6162 65.1455 24.0498 63.2217 23.4932ZM90.9863 13.9863H84.1309V33H81.333V13.9863H74.4922V11.6719H90.9863V13.9863ZM103.473 24.3721H98.4629V33H95.6357V11.6719H102.696C105.099 11.6719 106.944 12.2188 108.233 13.3125C109.532 14.4062 110.182 15.998 110.182 18.0879C110.182 19.416 109.82 20.5732 109.098 21.5596C108.385 22.5459 107.389 23.2832 106.109 23.7715L111.119 32.8242V33H108.102L103.473 24.3721ZM98.4629 22.0723H102.784C104.181 22.0723 105.289 21.7109 106.109 20.9883C106.939 20.2656 107.354 19.2988 107.354 18.0879C107.354 16.7695 106.959 15.7588 106.168 15.0557C105.387 14.3525 104.254 13.9961 102.77 13.9863H98.4629V22.0723ZM118.654 33H115.842V11.6719H118.654V33ZM140.999 26.2324C140.735 28.4883 139.9 30.2314 138.494 31.4619C137.098 32.6826 135.237 33.293 132.913 33.293C130.394 33.293 128.372 32.3896 126.849 30.583C125.335 28.7764 124.578 26.3594 124.578 23.332V21.2812C124.578 19.2988 124.93 17.5557 125.633 16.0518C126.346 14.5479 127.352 13.3955 128.65 12.5947C129.949 11.7842 131.453 11.3789 133.162 11.3789C135.428 11.3789 137.244 12.0137 138.611 13.2832C139.979 14.543 140.774 16.291 140.999 18.5273H138.172C137.928 16.8281 137.396 15.5977 136.575 14.8359C135.765 14.0742 134.627 13.6934 133.162 13.6934C131.365 13.6934 129.954 14.3574 128.929 15.6855C127.913 17.0137 127.405 18.9033 127.405 21.3545V23.4199C127.405 25.7344 127.889 27.5752 128.855 28.9424C129.822 30.3096 131.175 30.9932 132.913 30.9932C134.476 30.9932 135.672 30.6416 136.502 29.9385C137.342 29.2256 137.898 27.9902 138.172 26.2324H140.999ZM160.648 13.9863H153.793V33H150.995V13.9863H144.154V11.6719H160.648V13.9863ZM177.368 23.1416H168.125V30.7002H178.862V33H165.312V11.6719H178.716V13.9863H168.125V20.8418H177.368V23.1416ZM183.863 33V11.6719H189.884C191.739 11.6719 193.38 12.082 194.806 12.9023C196.231 13.7227 197.33 14.8896 198.102 16.4033C198.883 17.917 199.278 19.6553 199.288 21.6182V22.9805C199.288 24.9922 198.897 26.7549 198.116 28.2686C197.345 29.7822 196.236 30.9443 194.791 31.7549C193.355 32.5654 191.681 32.9805 189.767 33H183.863ZM186.676 13.9863V30.7002H189.635C191.803 30.7002 193.487 30.0264 194.688 28.6787C195.899 27.3311 196.505 25.4121 196.505 22.9219V21.6768C196.505 19.2549 195.934 17.375 194.791 16.0371C193.658 14.6895 192.047 14.0059 189.957 13.9863H186.676Z" fill="#FF0000"/>
</svg>
