<svg class='ageRatingIcon' width="300" height="300" viewBox="0 0 300 300" fill="none" xmlns="http://www.w3.org/2000/svg">
<path fill-rule="evenodd" clip-rule="evenodd" d="M8 8H292V292H8V8ZM0 0H8H292H300V8V292V300H292H8H0V292V8V0ZM157.04 32H69.6604V270H124.4V183.3H136.98C147.18 183.3 154.207 184.32 158.06 186.36C162.14 188.4 165.427 192.593 167.92 198.94L194.44 270H252.24L217.56 181.94C216.2 178.767 214.387 175.82 212.12 173.1C209.854 170.38 206.68 167.547 202.6 164.6V163.92C214.387 158.48 223.34 150.207 229.46 139.1C235.807 127.993 238.98 114.733 238.98 99.32C238.98 54.44 211.667 32 157.04 32ZM176.42 131.62C170.527 137.287 162.027 140.12 150.92 140.12H124.4V75.52H150.24C173.814 75.52 185.6 85.8333 185.6 106.46C185.6 117.34 182.54 125.727 176.42 131.62Z" fill="black"/>
</svg>
